<svg version="1" xmlns="http://www.w3.org/2000/svg" width="485.333" height="485.333" viewBox="0 0 364.000000 364.000000"><path d="M82 3.1C59.1 13.9 43.1 33.7 36.4 59.5 32.6 74 32 94 34.9 110.7c6.8 40.1 30.2 82.5 72.5 131.3 11.9 13.7 20.5 24.3 24.5 30.3 11.4 16.9 17.5 44.9 15 68.9-1.2 11-1.1 11.2 1.1 13 2.7 2.2 15.6 6.3 24.2 7.8 46.1 7.6 91.6-17.7 114.5-63.5 9.9-19.7 12.5-35.6 14.8-91.5 1.8-41.5 10.2-71.3 24.5-86.9 5.6-6.2 6.4-9.7 2.9-13.2-2-2-2.9-2.1-10.9-1.6-26.5 1.7-49.3 14.1-70.5 38.4-15.7 18-31.9 46.7-39.1 69.6-1 3.1-2.1 5.4-2.5 5-.3-.5-1.4-3.2-2.4-6.2-3-9.2-10.1-24.6-15.8-34.3-8.7-14.7-18.6-26.7-40.7-49.3-27.7-28.3-36.8-39.7-45.5-57.4-5.3-10.6-8-19.4-9.5-30.2-1.2-8.9-.9-14.8 1.7-27.6 1.6-7.8 1.6-8.3-.1-10.2C90.8 0 88.5 0 82 3.1z"/></svg>